<svg width="12" height="15" viewBox="0 0 12 15" fill="none" xmlns="http://www.w3.org/2000/svg">
<path d="M9.33329 3.33333C9.33329 5.17415 7.84088 6.66667 5.99996 6.66667C4.15904 6.66667 2.66663 5.17415 2.66663 3.33333C2.66663 1.49251 4.15904 0 5.99996 0C7.84088 0 9.33329 1.49251 9.33329 3.33333Z" fill="#586A84"/>
<path d="M0.166626 13.3333C0.166626 10.1123 2.77832 7.5 5.99996 7.5C9.2216 7.5 11.8333 10.1123 11.8333 13.3333V14.1667C11.8333 14.6273 11.4602 15 11 15H0.999959C0.767721 15 0.557658 14.904 0.406494 14.751C0.320231 14.6631 0.253092 14.5573 0.212097 14.4385C0.182597 14.3538 0.166626 14.2627 0.166626 14.1667V13.3333Z" fill="#586A84"/>
</svg>
