<svg width="30" height="30" viewBox="0 0 30 30" fill="none" xmlns="http://www.w3.org/2000/svg">
<path fill-rule="evenodd" clip-rule="evenodd" d="M10.8327 11.3334V11.3334H9.33643C8.90378 11.3334 8.54309 11.6645 8.50614 12.0956L7.57757 22.9289C7.53587 23.4155 7.91954 23.8334 8.40786 23.8334H21.5922C22.0805 23.8334 22.4642 23.4155 22.4225 22.9289L21.4939 12.0956C21.457 11.6645 21.0963 11.3334 20.6636 11.3334H19.1661V11.3334C19.1661 9.03217 17.3006 7.16669 14.9994 7.16669C12.6982 7.16669 10.8327 9.03217 10.8327 11.3334ZM12.4994 11.3334V11.3334H17.4994V11.3334C17.4994 9.95264 16.3801 8.83335 14.9994 8.83335C13.6187 8.83335 12.4994 9.95264 12.4994 11.3334ZM14.9981 18C17.2818 18 19.1364 16.1628 19.1644 13.8857C19.1655 13.8684 19.1661 13.8509 19.1661 13.8334C19.1661 13.3731 18.793 13 18.3327 13C17.8725 13 17.4994 13.3731 17.4994 13.8334V13.8334H17.4981C17.4981 15.2141 16.3788 16.3334 14.9981 16.3334C13.631 16.3334 12.5201 15.236 12.4984 13.874C12.4991 13.8605 12.4994 13.847 12.4994 13.8334C12.4994 13.3731 12.1263 13 11.6661 13C11.2058 13 10.8327 13.3731 10.8327 13.8334V13.8334H10.8321V13.7591C10.8316 13.7838 10.8314 13.8086 10.8314 13.8334C10.8314 16.1345 12.6969 18 14.9981 18Z" fill="#586A84"/>
</svg>
